<svg xmlns="http://www.w3.org/2000/svg" viewBox="0 0 33.13 60.14"><defs><style>.cls-1{fill:#ffffff;fill-rule:evenodd;}</style></defs><title>solve</title><g id="Page_1" data-name="Page 1"><g id="图层_1" data-name="图层 1"><path class="cls-1" d="M108.52,35.95c0-.46.85-1,1.36-1h1a15.25,15.25,0,0,1,2.66.68,6.18,6.18,0,0,1-3,.85H110c-.44,0-1.47-.19-1.47-.57Zm11.67-.68c.23-.31,2.78-.74,3.57-.74h.06c.52,0,1.3.17,1.3.62v.45c0,.5-.51.68-1,.68a8,8,0,0,1-2.1-.4c-.49-.12-1.4-.59-1.81-.62Zm-12.74-14.5a10.58,10.58,0,0,1,.89-3.7,8.57,8.57,0,0,1,1.9-2.63A10.48,10.48,0,0,1,116.9,12h.34a11,11,0,0,1,6.82,2.41,8.62,8.62,0,0,1,3,6.2v.74A16.62,16.62,0,0,1,124,30.15a14.7,14.7,0,0,1-3,3,13.05,13.05,0,0,1-1.87,1.13,17,17,0,0,1-2.1.85c.16.22.71.33,1,.5a3.6,3.6,0,0,1,.54.94c.33.67.64,1.32,1,2h-4.87l1.45-3.44a18.37,18.37,0,0,1-3.4-2.31A15.71,15.71,0,0,1,110,29.81a15.14,15.14,0,0,1-2.57-8.7v-.34ZM118,10.8h-1.93s-2,.33-2.16.39a9.71,9.71,0,0,0-1.9.65,9.92,9.92,0,0,0-3,2.09,10.19,10.19,0,0,0-2.85,7.35v.45a16,16,0,0,0,3.78,10,13.08,13.08,0,0,0,1.1,1.16c.2.2,1.1,1,1.18,1.09l-1.81-.27-.52,0A2.63,2.63,0,0,0,107.27,36c0,1.21,1.5,1.7,2.78,1.7h.68a7.61,7.61,0,0,0,1.78-.26c.54-.14,1.07-.44,1.45-.53l-1.21,2.82h2.91a6.45,6.45,0,0,0,1.69,3.75c.17.17.85.78.92.89h-11c-2.33,0-3.15-.06-4.55,1a4.57,4.57,0,0,0-1.79,3.7v17a4.62,4.62,0,0,0,4.7,4.81h.4c.91,0,5.42-2.1,6.45-2.5a35.24,35.24,0,0,0,5.73-3.22c2.87-2.13,7.42-5.58,7.42-10.42,0-2.76-1.36-4.6-2.57-6.21a18.49,18.49,0,0,0-2.17-2.24c-.38-.36-2.37-1.8-2.45-1.91H120c-.13-.17-.81-.61-1.09-.89a8.63,8.63,0,0,1-.91-1,6.69,6.69,0,0,1-.72-1.26c-.21-.46-.27-1.1-.45-1.47h4.7l-1.66-3.33c.49.1,1.24.46,1.86.65a6.71,6.71,0,0,0,2.07.42h.57a1.87,1.87,0,0,0,2-1.81v-.51a1.77,1.77,0,0,0-1.12-1.59,6.27,6.27,0,0,0-2.44-.22c.4-.6,1.54-1.55,2.14-2.34a17.12,17.12,0,0,0,1.68-2.74,17.46,17.46,0,0,0,1.74-7.1v-.85A9.8,9.8,0,0,0,125,13.65c-.5-.37-.88-.69-1.43-1.06a13.15,13.15,0,0,0-3.49-1.44c-.23-.06-2.06-.32-2.1-.34Z" transform="translate(-100.87 -10.8)"/><path class="cls-1" d="M134,66.75V48.46a5.52,5.52,0,0,1-.23-.85,3.6,3.6,0,0,0-.34-.79,4.53,4.53,0,0,0-1-1.26,4.68,4.68,0,0,0-3.36-1.17h-9a11,11,0,0,0,1.2.95c.38.35.81.64,1.16,1,.75.76,1.4,1.38,2.09,2.21A10.65,10.65,0,0,1,127,54.69v.4c0,4.23-3.79,8.07-6.29,9.91a41.75,41.75,0,0,1-4.89,3.21c-.89.49-1.73.92-2.64,1.38-.34.17-2.69,1.19-2.78,1.3h13.82c2.16,0,4.91.24,6.63-.28a4.74,4.74,0,0,0,2.05-1.4,5.25,5.25,0,0,0,.66-1.09c.11-.25.36-1.3.4-1.36Z" transform="translate(-100.87 -10.8)"/></g></g></svg>